<?xml version="1.0" standalone="no"?>
<!DOCTYPE svg PUBLIC "-//W3C//DTD SVG 20010904//EN"
 "http://www.w3.org/TR/2001/REC-SVG-20010904/DTD/svg10.dtd">
<svg version="1.0" xmlns="http://www.w3.org/2000/svg"
 width="792.000000pt" height="315.000000pt" viewBox="0 0 792.000000 315.000000"
 preserveAspectRatio="xMidYMid meet">

<g transform="translate(0.000000,315.000000) scale(0.100000,-0.100000)"
fill="#ffffff" stroke="none">
<path d="M6680 2411 c-83 -51 -390 -211 -404 -211 -4 0 -48 -16 -99 -36 -92
-37 -319 -104 -347 -104 -8 1 2 15 25 33 21 18 95 87 162 153 95 94 123 127
123 148 0 35 -25 34 -87 -3 -119 -70 -252 -141 -292 -156 -25 -8 -83 -37 -130
-63 -47 -26 -111 -57 -141 -70 -30 -12 -77 -34 -104 -48 -26 -14 -51 -23 -54
-19 -3 3 35 47 84 98 115 117 174 186 174 204 0 32 -34 22 -127 -39 -54 -35
-138 -86 -188 -113 -49 -27 -108 -60 -130 -75 -59 -39 -145 -81 -145 -72 0 5
23 29 51 53 57 49 119 125 119 145 0 25 -25 15 -141 -54 -63 -38 -146 -81
-184 -96 -39 -16 -93 -39 -121 -52 -28 -13 -56 -24 -62 -24 -29 0 -165 -75
-184 -101 -18 -24 -29 -29 -62 -29 -23 0 -65 -11 -94 -25 -45 -21 -60 -23 -94
-16 -22 5 -42 12 -46 15 -3 4 -5 29 -3 56 3 65 -27 133 -71 160 -44 27 -205
28 -257 2 -52 -25 -83 -91 -79 -165 3 -62 5 -60 -63 -72 -27 -5 -47 -1 -78 14
-22 12 -62 24 -88 28 -34 4 -59 15 -83 37 -40 36 -83 55 -270 127 -126 48
-213 91 -320 159 -51 32 -80 37 -80 14 0 -15 78 -105 133 -152 15 -13 27 -28
27 -33 0 -10 -80 28 -145 69 -22 14 -78 46 -125 70 -47 25 -110 62 -140 82
-30 20 -76 49 -102 64 -42 25 -49 26 -54 11 -11 -27 9 -55 131 -183 65 -68
116 -125 113 -127 -2 -2 -37 12 -78 32 -41 20 -133 64 -205 98 -176 84 -272
132 -387 194 -54 29 -102 49 -108 46 -27 -17 -4 -53 100 -159 60 -61 130 -127
155 -146 24 -19 44 -38 45 -41 1 -18 -257 57 -400 115 -117 49 -282 128 -380
185 -106 61 -117 66 -135 51 -8 -7 -15 -18 -15 -25 0 -20 249 -244 354 -320
54 -38 108 -78 120 -88 21 -18 21 -18 -14 -13 -35 6 -131 33 -370 107 -69 21
-152 45 -185 53 -33 9 -94 29 -135 45 -113 43 -300 121 -331 137 -16 8 -39 14
-54 14 -50 0 -24 -49 55 -103 86 -60 312 -207 351 -229 147 -85 354 -177 504
-223 50 -15 94 -31 98 -35 13 -11 -70 -21 -210 -25 -120 -3 -143 -7 -143 -25
0 -13 65 -45 130 -63 88 -25 287 -57 359 -57 79 0 68 -12 -34 -35 -85 -20
-125 -35 -125 -46 0 -19 49 -31 197 -46 133 -14 174 -15 280 -4 68 6 130 14
138 18 8 3 15 1 15 -4 0 -5 -27 -22 -61 -36 -45 -20 -60 -31 -57 -44 7 -38
135 -43 261 -9 l88 23 -27 -28 c-16 -17 -24 -34 -21 -43 15 -38 187 -6 292 54
109 62 127 71 132 67 2 -3 -25 -29 -61 -57 -71 -58 -84 -77 -59 -87 31 -12
167 16 268 55 55 22 102 37 105 35 3 -3 -12 -20 -33 -39 -38 -35 -47 -58 -24
-67 19 -7 146 19 205 42 56 22 59 20 37 -19 -16 -28 -19 -66 -7 -74 5 -3 44 6
88 20 71 23 141 36 359 65 133 17 347 22 465 10 198 -21 393 -52 450 -72 93
-32 114 -20 80 47 -11 21 -18 39 -16 41 2 2 23 -3 47 -12 64 -24 181 -46 207
-40 33 8 27 28 -19 64 -22 18 -38 35 -35 38 2 3 60 -14 128 -38 130 -44 249
-62 263 -39 8 12 -30 50 -97 97 -68 47 -40 46 50 -2 114 -62 181 -84 269 -92
64 -5 73 -4 79 12 5 13 -2 26 -24 46 -18 16 -32 30 -32 32 0 2 31 -7 69 -20
112 -37 291 -31 291 10 0 8 -30 28 -67 46 l-68 31 55 -5 c170 -16 310 -17 434
0 72 9 138 21 149 26 25 14 17 32 -19 41 -107 25 -204 51 -201 54 2 2 46 6 98
9 105 6 116 8 249 36 164 36 220 58 220 89 0 19 -7 20 -135 20 -73 0 -158 5
-187 11 -49 11 -51 12 -28 21 14 6 48 16 76 23 162 44 511 212 694 336 14 9
61 40 105 69 79 52 173 125 187 145 11 15 4 30 -16 33 -10 2 -66 -16 -124 -41
-296 -125 -353 -148 -427 -167 -44 -12 -127 -36 -185 -55 -280 -88 -420 -128
-426 -122 -2 2 15 17 39 34 23 17 79 57 123 89 45 33 126 100 180 151 55 50
112 101 127 113 34 27 49 54 41 74 -9 23 -43 18 -94 -13z m-25 -75 c-17 -26
-171 -162 -280 -247 -106 -82 -237 -159 -273 -159 -25 0 -76 -40 -65 -51 5 -5
33 -2 63 6 30 9 141 33 245 55 225 47 425 101 503 136 32 14 86 37 122 51 36
14 85 33 110 43 45 17 53 20 119 47 19 7 36 12 37 10 10 -9 -138 -117 -238
-173 -62 -34 -223 -114 -232 -114 -2 0 -53 -23 -113 -52 -109 -51 -388 -148
-429 -148 -23 0 -51 -26 -40 -37 4 -4 24 -8 44 -9 20 0 125 -4 232 -9 223 -9
224 -13 17 -59 -101 -23 -142 -27 -282 -27 -89 0 -179 3 -199 6 -31 6 -36 5
-36 -12 0 -16 15 -24 78 -42 42 -12 88 -26 102 -31 14 -4 51 -14 83 -21 31 -6
57 -15 57 -19 0 -21 -329 -37 -413 -21 -162 32 -215 44 -252 61 -51 22 -105
32 -105 20 0 -5 24 -21 53 -36 28 -14 63 -37 77 -50 14 -12 51 -35 83 -49 31
-15 57 -31 57 -36 0 -12 -5 -12 -96 6 -119 23 -193 51 -253 96 -38 29 -57 37
-64 30 -8 -8 0 -23 29 -54 45 -47 88 -106 82 -112 -13 -13 -179 42 -283 95
-76 38 -123 56 -129 50 -6 -6 -3 -16 7 -28 9 -10 17 -24 17 -30 0 -6 23 -32
50 -58 28 -26 48 -49 46 -51 -8 -8 -177 38 -266 72 -51 19 -96 35 -101 35 -18
0 -8 -28 28 -75 l36 -48 -50 7 c-28 3 -98 24 -156 46 -58 22 -113 40 -121 40
-31 0 -15 -26 27 -45 50 -24 99 -88 72 -93 -28 -6 -107 20 -101 33 8 22 -10
36 -84 61 -51 18 -76 22 -83 15 -14 -14 -16 -13 78 -46 43 -16 74 -30 67 -33
-7 -2 -58 3 -115 12 -100 15 -122 18 -239 32 -32 4 -58 11 -58 15 0 5 5 9 11
9 23 0 157 71 214 114 59 44 85 55 85 37 0 -5 15 -15 34 -21 36 -12 97 -4 215
26 83 21 89 0 11 -42 -39 -20 -147 -25 -214 -10 -52 12 -45 -12 10 -31 51 -19
142 -11 220 18 37 14 83 23 124 23 54 1 203 34 232 52 18 11 6 33 -22 43 -16
5 -31 7 -31 3 -1 -4 -2 -13 -3 -21 -3 -39 -236 -69 -236 -32 0 8 91 38 200 67
36 10 94 29 130 42 36 13 110 39 165 58 55 19 107 38 116 43 16 9 110 46 189
75 l45 16 93 -40 c100 -43 132 -48 152 -25 10 13 10 19 -5 35 -14 15 -15 20
-4 20 30 0 97 -23 155 -52 63 -33 94 -33 94 0 0 21 -36 48 -150 110 -131 71
-190 84 -396 90 -185 4 -302 -7 -461 -44 -73 -16 -229 -19 -238 -3 -10 15 17
33 125 86 52 25 147 75 210 111 63 35 140 78 170 95 30 17 76 46 103 65 26 19
47 29 47 23 0 -10 -148 -173 -173 -192 -46 -34 -147 -124 -147 -131 0 -23 36
-17 107 17 43 21 133 62 201 90 67 29 141 64 165 78 80 47 397 204 397 198 0
-4 -46 -52 -103 -107 -95 -92 -161 -147 -258 -217 -63 -46 -44 -62 40 -32 23
8 81 24 129 35 209 50 400 127 677 275 66 35 121 64 123 64 1 1 -4 -10 -13
-23z m-4686 -46 c88 -47 448 -223 504 -246 105 -43 247 -108 247 -114 0 -3
-109 -5 -242 -5 -239 0 -244 -1 -317 -27 -82 -30 -223 -108 -260 -143 -26 -26
-23 -55 6 -55 10 0 38 12 63 26 43 26 129 54 160 54 12 -1 11 -4 -3 -15 -10
-7 -17 -22 -15 -32 5 -28 61 -21 157 20 82 35 84 36 135 23 51 -14 105 -35
161 -63 17 -9 57 -24 90 -34 75 -22 144 -47 170 -59 37 -18 107 -40 194 -61
47 -11 94 -25 104 -31 11 -5 47 -14 81 -19 282 -45 283 -45 310 -20 l23 22 37
-23 c21 -13 52 -34 69 -48 33 -26 64 -43 152 -81 48 -21 49 -22 23 -29 -14 -4
-55 -11 -90 -15 -127 -13 -274 -36 -333 -51 -121 -32 -121 -32 -79 23 14 18
43 42 65 53 21 11 39 25 39 31 0 17 -53 6 -165 -34 -55 -20 -117 -39 -139 -43
l-39 -7 42 57 c55 73 41 79 -81 32 -96 -37 -249 -79 -257 -70 -3 2 16 24 41
48 39 37 78 92 78 111 0 14 -38 0 -137 -49 -94 -48 -230 -96 -271 -96 -15 0
30 62 86 117 17 18 32 37 32 43 0 15 -36 12 -50 -5 -18 -22 -95 -64 -155 -85
-58 -20 -203 -45 -212 -36 -3 3 23 19 58 36 34 16 72 38 83 49 12 10 45 31 74
46 28 16 52 32 52 37 0 13 -37 9 -78 -8 -71 -30 -112 -42 -242 -65 -103 -18
-444 -9 -423 12 4 4 44 17 87 29 149 40 211 64 214 84 3 16 -1 17 -38 11 -23
-4 -112 -7 -198 -7 -158 0 -251 12 -372 50 l-55 16 80 7 c44 4 144 10 223 14
121 7 142 11 140 24 -2 9 -28 22 -68 33 -153 42 -295 95 -448 165 -247 113
-371 183 -457 258 -46 40 -38 37 234 -70 170 -68 328 -113 541 -155 85 -17
195 -40 243 -51 49 -11 91 -18 94 -15 14 14 -11 36 -59 50 -65 19 -195 97
-286 170 -127 103 -215 181 -230 204 -14 22 -14 22 10 13 14 -5 92 -43 174
-84 153 -76 281 -132 369 -160 67 -22 364 -97 381 -97 27 0 13 16 -78 85 -91
69 -311 275 -294 275 4 0 25 -9 45 -20z m545 -63 c17 -12 60 -38 96 -56 36
-19 77 -42 92 -53 14 -10 28 -18 31 -18 2 0 42 -21 88 -46 46 -26 114 -59 150
-74 36 -14 83 -39 103 -55 31 -24 35 -30 21 -37 -21 -12 -181 -5 -277 12 -77
13 -93 22 -62 34 19 7 7 31 -29 55 -42 27 -201 176 -237 221 -35 44 -24 52 24
17z m2516 -104 c-63 -72 -152 -154 -189 -172 -22 -12 -45 -29 -50 -40 -7 -12
-27 -21 -63 -26 -55 -8 -209 -7 -217 1 -11 11 38 43 102 68 171 66 208 82 302
128 55 27 104 54 110 59 22 22 26 6 5 -18z m-1989 -51 c119 -60 126 -63 278
-117 148 -53 160 -82 36 -86 -105 -3 -187 10 -192 31 -3 10 -21 26 -41 36 -53
27 -224 194 -198 194 2 0 55 -26 117 -58z m1050 -42 c41 -30 62 -75 55 -118
-8 -49 -28 -67 -105 -93 l-68 -22 -70 27 c-83 31 -98 53 -90 123 4 38 12 53
38 75 38 32 63 37 147 32 43 -2 72 -10 93 -24z m1539 -110 c63 -6 131 -15 150
-21 51 -15 170 -72 170 -81 0 -10 2 -11 -59 8 -64 19 -131 11 -138 -16 -4 -14
-10 -16 -31 -10 -31 9 -112 44 -158 67 -41 21 -109 8 -275 -53 -87 -32 -143
-46 -187 -48 -53 -3 -70 -8 -117 -40 -59 -41 -187 -80 -304 -91 -85 -9 -174
-31 -219 -55 -20 -11 -38 -18 -40 -16 -5 5 58 104 84 131 11 11 32 28 47 38
35 23 26 42 -11 23 -39 -20 -83 -71 -128 -146 -73 -123 -180 -204 -305 -231
-29 -6 -103 -10 -168 -7 -105 4 -123 7 -183 35 -79 37 -151 101 -204 181 -62
93 -104 141 -134 157 -35 18 -40 19 -40 2 0 -7 15 -20 33 -29 18 -9 46 -35 61
-59 16 -24 38 -56 48 -71 22 -33 11 -35 -40 -9 -35 17 -69 25 -232 51 -137 22
-206 43 -271 81 -52 31 -75 39 -114 39 -33 0 -95 16 -189 49 -78 28 -165 53
-195 57 -56 7 -52 8 -171 -52 -33 -16 -112 -44 -125 -43 -5 0 0 4 12 9 37 15
28 37 -18 43 -47 6 -107 -1 -115 -14 -7 -11 -34 -12 -34 -1 0 16 156 83 215
93 123 19 325 22 427 5 54 -9 110 -16 126 -16 15 0 44 -8 64 -19 33 -16 48
-17 150 -9 79 7 136 6 192 -2 88 -13 178 -43 196 -65 7 -8 19 -15 26 -15 21 0
17 23 -6 38 -31 19 -17 29 52 35 122 11 220 -41 348 -183 40 -44 76 -80 81
-80 23 0 1 31 -88 121 -92 94 -95 99 -72 107 35 13 51 5 79 -39 54 -88 125
-136 180 -124 27 6 93 70 150 145 22 28 30 32 54 26 15 -4 26 -11 24 -16 -2
-5 -29 -36 -61 -68 -80 -84 -129 -144 -122 -150 3 -3 52 42 109 101 146 151
226 185 371 158 39 -7 40 -7 18 -21 -13 -8 -23 -23 -23 -32 0 -23 4 -23 32 5
15 15 56 33 108 47 74 20 106 23 248 22 123 -1 169 2 185 12 12 8 69 19 127
26 58 7 128 16 155 20 73 11 126 11 255 0z m-80 -90 c0 -5 -20 -10 -45 -10
-25 0 -45 5 -45 10 0 6 20 10 45 10 25 0 45 -4 45 -10z m-122 -12 c14 -14 16
-38 4 -38 -18 0 -45 28 -38 38 9 15 19 15 34 0z m-2923 -8 c-3 -5 -24 -10 -45
-10 -21 0 -42 5 -45 10 -4 6 13 10 45 10 32 0 49 -4 45 -10z m70 -9 c6 -10
-25 -31 -44 -31 -8 0 -7 7 1 20 14 21 33 26 43 11z m2783 -3 c17 -17 15 -28
-7 -28 -22 0 -35 15 -26 30 8 13 18 13 33 -2z m-2720 -20 c-3 -7 -15 -15 -28
-16 -21 -3 -22 -2 -11 12 16 19 44 21 39 4z m2667 -18 c16 -18 16 -20 1 -26
-9 -3 -28 2 -42 11 -21 14 -24 19 -13 26 21 13 34 11 54 -11z m-2585 -9 c0
-16 -26 -31 -54 -31 l-29 0 22 24 c20 22 61 26 61 7z m1210 -16 c0 -40 -9 -44
-36 -14 -18 20 -18 21 1 35 29 21 35 17 35 -21z m131 25 c14 0 11 -22 -8 -42
-24 -27 -33 -22 -33 18 0 29 3 35 16 30 9 -3 20 -6 25 -6z m1165 -32 l19 -21
-34 7 c-40 7 -45 11 -36 25 10 17 30 13 51 -11z m-2439 -4 c4 -13 -45 -37 -58
-28 -14 8 21 45 40 42 8 -2 16 -8 18 -14z m2367 -23 c16 -18 16 -19 -11 -24
-45 -8 -88 25 -45 36 32 9 39 7 56 -12z m-2274 -12 c0 -17 -44 -30 -70 -21
l-24 9 28 15 c29 15 66 13 66 -3z m2182 -16 c26 -24 22 -33 -15 -33 -37 0 -79
33 -55 43 25 10 52 7 70 -10z m-2092 -3 c13 -8 12 -11 -5 -24 -19 -15 -85 -22
-85 -10 0 11 45 43 60 44 8 0 22 -5 30 -10z m2005 -30 c24 -27 15 -33 -34 -25
-45 7 -61 22 -40 36 23 15 55 10 74 -11z m-1915 0 c13 -9 13 -11 0 -20 -21
-14 -79 -24 -88 -15 -9 9 36 45 57 45 9 0 23 -5 31 -10z m1805 -26 c29 -19 23
-38 -11 -30 -48 12 -75 26 -69 36 9 15 53 12 80 -6z m-1685 -3 c0 -12 -56 -31
-89 -31 l-26 0 25 20 c25 20 90 28 90 11z m1565 -12 c4 -5 18 -14 31 -19 36
-14 29 -30 -14 -30 -31 0 -61 12 -92 37 -8 7 24 23 47 23 12 0 25 -5 28 -11z
m-1460 -9 c8 -14 -54 -50 -87 -50 -36 0 -45 18 -15 29 14 6 28 15 32 20 8 14
62 14 70 1z m1385 -52 c0 -5 -17 -8 -38 -8 -41 0 -84 32 -66 49 21 21 59 17
81 -9 12 -14 22 -28 23 -32z m-1292 46 c27 -8 28 -14 2 -42 -20 -21 -78 -31
-93 -15 -9 8 42 63 57 63 6 0 21 -3 34 -6z m1154 -31 c10 -9 18 -22 18 -30 0
-18 -74 -17 -89 1 -10 12 -7 18 16 30 35 19 33 19 55 -1z m-1044 -9 c31 -22
12 -44 -38 -44 -47 0 -53 7 -32 36 20 28 39 30 70 8z"/>
<path d="M5550 1713 c-60 -35 -170 -63 -250 -63 -59 -1 -63 -2 -46 -15 11 -8
28 -15 38 -15 10 0 18 -6 18 -14 0 -15 -68 -42 -140 -54 -24 -4 -46 -14 -48
-21 -4 -11 4 -13 37 -7 117 18 146 29 179 63 26 28 49 39 107 54 76 20 165 64
173 87 6 19 -19 13 -68 -15z"/>
<path d="M2355 1720 c-4 -6 -4 -14 -1 -19 11 -16 111 -59 185 -77 56 -14 76
-24 84 -41 5 -12 24 -28 41 -36 36 -17 164 -42 172 -34 11 11 -7 27 -31 27
-33 0 -155 39 -155 50 0 5 14 13 32 18 17 4 33 13 36 20 3 9 -16 12 -66 12
-87 0 -179 23 -243 60 -27 16 -51 25 -54 20z"/>
<path d="M2918 1544 c-16 -8 -28 -18 -28 -22 0 -23 201 -75 263 -68 35 4 58 0
85 -14 20 -10 69 -24 107 -30 62 -11 76 -10 119 7 51 19 82 53 35 39 -86 -27
-108 -29 -170 -15 -35 8 -77 23 -94 34 -25 17 -37 19 -77 11 -37 -7 -64 -5
-125 10 -70 18 -78 22 -75 42 4 26 -3 27 -40 6z"/>
<path d="M3466 1335 c-26 -13 -53 -28 -59 -34 -20 -20 0 -22 39 -5 22 9 59 22
83 28 25 7 46 17 49 24 6 20 -59 13 -112 -13z"/>
<path d="M4945 1791 c-22 -10 -65 -30 -96 -44 -30 -15 -107 -40 -169 -55 -63
-16 -116 -34 -118 -41 -10 -30 180 18 323 82 50 22 103 43 119 46 16 4 31 12
34 19 6 18 -46 15 -93 -7z"/>
<path d="M2922 1789 c2 -7 18 -16 34 -20 17 -3 64 -22 105 -42 96 -46 321
-108 336 -93 13 13 -15 25 -104 45 -107 24 -135 34 -233 79 -79 37 -145 51
-138 31z"/>
<path d="M3710 1547 c0 -17 42 -37 75 -37 38 0 30 15 -18 34 -52 19 -57 20
-57 3z"/>
<path d="M4181 1546 c-19 -7 -37 -18 -39 -24 -6 -18 54 -15 83 4 49 32 22 44
-44 20z"/>
<path d="M4210 1475 c0 -8 5 -15 10 -15 6 0 10 7 10 15 0 8 -4 15 -10 15 -5 0
-10 -7 -10 -15z"/>
<path d="M3730 1465 c0 -8 5 -15 10 -15 6 0 10 7 10 15 0 8 -4 15 -10 15 -5 0
-10 -7 -10 -15z"/>
<path d="M3872 2150 c-18 -4 -41 -15 -51 -24 -10 -9 -22 -16 -28 -16 -19 0
-75 -71 -69 -87 3 -8 6 -17 6 -19 0 -2 6 -4 14 -4 8 0 29 19 47 41 44 55 97
79 180 79 84 0 146 -26 189 -80 39 -49 60 -52 60 -7 0 27 -8 38 -55 72 -31 22
-68 43 -83 46 -38 9 -171 8 -210 -1z"/>
<path d="M5180 943 c-35 -23 -40 -33 -40 -74 0 -39 21 -65 76 -92 50 -25 59
-43 35 -64 -29 -24 -26 -35 7 -27 36 8 72 49 72 82 0 39 -24 69 -81 97 -48 25
-66 57 -36 68 8 3 9 8 2 16 -8 8 -17 6 -35 -6z"/>
<path d="M3653 940 c-21 -8 -21 -13 -16 -114 4 -74 2 -110 -6 -120 -16 -19 11
-28 68 -24 40 3 51 11 31 23 -6 4 -10 55 -10 120 0 94 -3 114 -16 119 -19 7
-23 7 -51 -4z"/>
<path d="M3910 918 c1 -18 7 -55 14 -83 12 -46 12 -51 -4 -57 -33 -12 -33 -28
1 -28 29 0 31 -2 27 -29 -4 -25 0 -31 19 -36 35 -8 95 5 85 19 -4 6 -20 63
-37 126 l-30 115 -37 3 c-37 3 -38 2 -38 -30z"/>
<path d="M4097 943 c-10 -9 -9 -83 1 -83 12 0 43 70 37 81 -7 11 -29 12 -38 2z"/>
<path d="M4167 944 c-4 -4 -7 -57 -7 -119 0 -73 -4 -115 -12 -123 -9 -9 3 -12
56 -12 55 0 66 3 58 13 -6 7 -13 64 -14 128 l-3 114 -35 3 c-20 2 -39 0 -43
-4z"/>
<path d="M4266 942 c-6 -11 25 -82 37 -82 4 0 7 19 5 42 -2 30 -8 44 -20 46
-9 2 -19 -1 -22 -6z"/>
<path d="M4340 911 c0 -53 13 -58 33 -15 23 46 21 54 -8 54 -22 0 -25 -4 -25
-39z"/>
<path d="M4410 832 c0 -78 -4 -122 -12 -130 -9 -9 3 -12 56 -12 55 0 66 3 58
13 -6 7 -12 53 -13 102 -2 141 -4 145 -50 145 l-39 0 0 -118z"/>
<path d="M4518 945 c-7 -7 24 -75 35 -75 16 0 3 75 -13 78 -9 1 -19 0 -22 -3z"/>
<path d="M4649 935 c-62 -34 -74 -158 -21 -215 33 -35 79 -52 68 -25 -13 35
-19 222 -7 229 15 10 14 26 -1 26 -7 -1 -25 -7 -39 -15z"/>
<path d="M4728 939 c15 -16 17 -202 1 -231 -15 -28 -7 -31 33 -15 60 25 86
116 55 190 -17 39 -33 53 -72 62 -25 6 -28 5 -17 -6z"/>
<path d="M4899 919 c-50 -54 -51 -145 -1 -199 28 -30 72 -49 72 -31 0 5 -4 13
-10 16 -13 8 -13 201 0 226 18 32 -28 24 -61 -12z"/>
<path d="M4998 939 c15 -16 17 -202 1 -231 -15 -28 -6 -32 33 -14 61 29 86
120 52 192 -19 41 -31 50 -69 59 -25 6 -28 5 -17 -6z"/>
<path d="M5262 927 c14 -12 31 -31 37 -42 9 -17 10 -14 11 21 0 40 0 41 -37
42 l-38 2 27 -23z"/>
<path d="M2620 923 c5 -10 23 -56 40 -103 54 -148 50 -142 70 -94 27 63 35
120 16 127 -8 3 -20 24 -27 46 -12 41 -13 41 -61 41 -43 0 -47 -2 -38 -17z"/>
<path d="M2780 820 c0 -87 -3 -120 -12 -120 -8 0 -9 -3 -1 -11 5 -5 32 -9 59
-7 38 2 48 6 44 18 -11 36 -11 212 1 226 10 12 4 14 -40 14 l-51 0 0 -120z"/>
<path d="M2946 910 c-32 -38 -41 -85 -27 -138 11 -41 59 -92 87 -92 16 0 19
16 4 25 -15 9 -13 208 2 223 9 9 6 12 -14 12 -17 0 -35 -11 -52 -30z"/>
<path d="M3048 928 c15 -15 16 -201 1 -230 -10 -19 -9 -20 17 -14 39 10 61 32
75 73 25 76 -21 183 -79 183 -20 0 -23 -3 -14 -12z"/>
<path d="M3188 918 c9 -25 10 -194 2 -218 -4 -12 5 -16 39 -18 55 -4 79 4 63
20 -8 8 -12 52 -12 125 l0 113 -50 0 c-47 0 -49 -1 -42 -22z"/>
<path d="M3300 931 c0 -6 5 -13 10 -16 13 -8 13 -61 -1 -87 -8 -14 -8 -23 0
-31 6 -6 11 -25 11 -42 0 -47 26 -77 62 -73 41 4 58 30 35 53 -9 9 -17 25 -17
35 0 11 -9 24 -21 31 l-21 11 21 19 c26 24 27 70 3 92 -20 18 -82 23 -82 8z"/>
<path d="M3570 900 c0 -48 13 -52 31 -7 7 17 14 35 17 40 2 4 -8 7 -22 7 -24
0 -26 -4 -26 -40z"/>
<path d="M3740 936 c0 -2 7 -20 15 -40 18 -43 35 -39 35 10 0 30 -3 34 -25 34
-14 0 -25 -2 -25 -4z"/>
<path d="M3877 818 c-10 -31 -17 -60 -17 -66 0 -5 -9 -21 -20 -35 l-20 -25 28
-5 c34 -7 46 1 31 19 -9 11 -8 29 6 79 21 80 14 111 -8 33z"/>
<path d="M2642 775 c-1 -22 -9 -50 -17 -61 -16 -24 -11 -34 20 -34 30 0 38 11
21 29 -8 9 -16 36 -19 61 l-4 45 -1 -40z"/>
<path d="M5141 733 c-1 -43 -1 -43 35 -43 l37 0 -24 23 c-13 13 -29 32 -36 43
-10 17 -12 14 -12 -23z"/>
</g>
</svg>
